<?xml version="1.0" encoding="utf-8"?>
<!-- Uploaded to: SVG Repo, www.svgrepo.com, Generator: SVG Repo Mixer Tools -->
<svg fill="#000000" width="800px" height="800px" viewBox="0 0 32 32" version="1.1" xmlns="http://www.w3.org/2000/svg">
<title>arrow-trend-up</title>
<path d="M30.747 1.984l-0.005-0.023c-0.009-0.197-0.093-0.372-0.225-0.5l-0-0-0.003-0.008-0.018-0.007c-0.13-0.12-0.304-0.194-0.495-0.196h-7.071c-0.414 0-0.75 0.336-0.75 0.75s0.336 0.75 0.75 0.75v0h5.337l-11.63 12.384-6.982-2.389c-0.072-0.026-0.156-0.040-0.243-0.040-0.303 0-0.565 0.18-0.683 0.439l-0.002 0.005-7.411 16.545c-0.041 0.090-0.065 0.195-0.065 0.305 0 0.414 0.336 0.75 0.75 0.75 0.303 0 0.564-0.179 0.682-0.437l0.002-0.005 7.131-15.921 6.793 2.324c0.072 0.025 0.156 0.040 0.242 0.040 0.216 0 0.41-0.091 0.547-0.236l0-0 11.852-12.619v5.177c0 0.414 0.336 0.75 0.75 0.75s0.75-0.336 0.75-0.75v0-7.071z"></path>
</svg>